<svg fill="#E9C597" version="1.1" id="Capa_1" xmlns="http://www.w3.org/2000/svg" xmlns:xlink="http://www.w3.org/1999/xlink" viewBox="-1.38 -1.38 48.76 48.76" xml:space="preserve" stroke="#E9C597"><g id="SVGRepo_bgCarrier" stroke-width="0"></g><g id="SVGRepo_tracerCarrier" stroke-linecap="round" stroke-linejoin="round"></g><g id="SVGRepo_iconCarrier"> <g> <g> <path d="M23,6c9.374,0,17,7.627,17,17c0,9.375-7.626,17-17,17S6,32.375,6,23C6,13.627,13.626,6,23,6 M23,0C10.298,0,0,10.298,0,23 c0,12.703,10.298,23,23,23s23-10.297,23-23C46,10.298,35.702,0,23,0L23,0z"></path> <g> <path d="M20.887,32.482c-0.609,0.608-1.437,0.951-2.298,0.951c-0.861,0-1.689-0.343-2.298-0.951l-7.122-7.123 c-1.269-1.269-1.269-3.327,0-4.596c1.27-1.27,3.327-1.27,4.597,0l4.243,4.242c0.321,0.32,0.84,0.32,1.161,0l11.489-11.489 c1.271-1.27,3.327-1.27,4.597,0c1.27,1.27,1.27,3.327,0,4.597L20.887,32.482z"></path> </g> </g> </g> </g></svg>